<svg xmlns="http://www.w3.org/2000/svg" width="47.333" height="40.667" viewBox="0 0 47.333 40.667" overflow="auto"><path fill="#231F20" d="M38.281 22.9v-4.875l-4.006-.855-.805-2.111 2.213-2.766-3.973-3.901-3.017 2.242-1.81-.705-.704-4.08h-4.978l-.805 4.382-1.76.704-3.67-2.212-3.166 3.066 2.162 3.469-.603 2.011-4.306 1.057v4.273l4.206.805.704 2.312-2.011 3.217 3.268 3.27 3.418-2.062 1.859.555 1.107 4.123h4.424l.955-4.072 1.86-.555 2.915 2.312 3.973-3.973-2.363-2.865.905-2.059 4.008-.707zm-8.643-.094l-3.498 3.498h-4.947l-3.498-3.498v-4.947l3.498-3.498h4.947l3.498 3.498v4.947z"/></svg>
