<?xml version="1.0" encoding="utf-8"?>
<!-- Generator: Adobe Illustrator 16.0.4, SVG Export Plug-In . SVG Version: 6.00 Build 0)  -->
<!DOCTYPE svg PUBLIC "-//W3C//DTD SVG 1.1 Tiny//EN" "http://www.w3.org/Graphics/SVG/1.1/DTD/svg11-tiny.dtd">
<svg version="1.1" baseProfile="tiny" xmlns="http://www.w3.org/2000/svg" xmlns:xlink="http://www.w3.org/1999/xlink" x="0px"
	 y="0px" width="47.333px" height="40.667px" viewBox="0 0 47.333 40.667" overflow="visible" xml:space="preserve">
<g id="Layer_1" display="none">
	<g display="inline">
		<path fill="#231F20" d="M38.281,22.9v-4.875l-4.006-0.855l-0.805-2.111l2.213-2.766L31.71,8.392l-3.017,2.242l-1.81-0.705
			l-0.704-4.08h-4.978l-0.805,4.382l-1.76,0.704l-3.67-2.212L11.8,11.789l2.162,3.469l-0.603,2.011l-4.306,1.057v4.273l4.206,0.805
			l0.704,2.312l-2.011,3.217l3.268,3.27l3.418-2.062l1.859,0.555l1.107,4.123h4.424l0.955-4.072l1.86-0.555l2.915,2.312l3.973-3.973
			l-2.363-2.865l0.905-2.059L38.281,22.9z M29.638,22.806l-3.498,3.498h-4.947l-3.498-3.498v-4.947l3.498-3.498h4.947l3.498,3.498
			V22.806z"/>
	</g>
</g>
<g id="Layer_2" display="none">
	<g display="inline">
		<polygon fill="#231F20" points="12.095,15.312 16.773,15.312 21.799,20.327 16.773,25.355 11.607,25.355 16.381,20.319 		"/>
		<polyline fill="#231F20" points="12.377,8.147 12.377,14.201 16.194,14.201 16.194,11.899 31.975,11.899 31.975,28.789 
			16.127,28.789 16.127,26.73 12.377,26.73 12.377,32.519 35.726,32.519 35.726,8.147 12.377,8.147 		"/>
	</g>
</g>
<g id="Layer_3" display="none">
	<g display="inline">
		<path d="M17.31,28.024L5.255,22.167v-3.681L17.31,12.63v4.406l-7.78,3.303l7.78,3.305V28.024z"/>
		<path d="M24.122,10.931h3.56l-4.567,18.805H19.58L24.122,10.931z"/>
		<path d="M30.023,23.644l7.781-3.305l-7.781-3.304V12.63l12.055,5.856v3.681l-12.055,5.856V23.644z"/>
	</g>
</g>
<g id="Layer_4" display="none">
	<g display="inline">
		<polygon fill="#231F20" points="36.781,26.465 29.716,24.646 33.033,19.4 28.539,19.4 28.539,16.831 33.033,16.831 27.896,12.549 
			27.041,6.983 23.667,7.625 20.295,6.983 19.438,12.549 14.3,16.831 18.796,16.831 18.796,19.4 14.3,19.4 17.62,24.646 
			10.554,26.465 7.235,33.684 23.293,33.684 24.042,33.684 40.099,33.684 		"/>
	</g>
</g>
<g id="Layer_5">
	<g>
		<path d="M40.331,16.802l0.961,3.307l-7.361,2.08c0,0,0,4.427-3.572,6.186c-3.572,1.761-6.347,0.269-6.347,0.269l-0.445-1.279
			l5.3-1.441l1.174-4.535l-3.416-3.358l-4.906,1.484l-0.426-1.165c0,0,2.293-5.067,9.067-2.187c0,0,2.135,1.333,2.613,2.506
			L40.331,16.802z"/>
		<polygon points="41.292,16.553 42.465,16.216 43.409,19.595 42.18,19.965 		"/>
		<polygon points="41.706,16.405 42.465,16.216 43.409,19.595 42.18,19.965 41.86,18.835 42.35,18.644 		"/>
		<path d="M39.518,17.01l0.812-0.207l0.961,3.307l-7.361,2.08c0,0-0.078,3.864-2.639,5.612c-2.559,1.748-5.441,1.694-7.28,0.844
			l-0.205-0.591c0,0,5.007,1.177,7.485-2.585c1.494-2.48,1.467-4.266,1.467-4.266l7.389-1.999L39.518,17.01z"/>
		<polygon points="21.29,18.349 25.612,17.095 26.624,18.03 21.716,19.514 		"/>
		<path d="M6.058,20.695l0.868,3.333l7.386-1.978c0,0,2.267,3.802,6.238,3.485c3.972-0.317,5.589-3.016,5.589-3.016l-0.273-1.33
			l-5.288,1.476L17.25,19.37l1.214-4.635l4.975-1.233l-0.23-1.22c0,0-4.562-3.181-8.909,2.76c0,0-1.15,2.238-0.962,3.492
			L6.058,20.695z"/>
		<polygon points="5.105,20.972 3.925,21.283 4.842,24.667 6.088,24.359 		"/>
		<polygon points="4.674,21.055 3.925,21.283 4.842,24.667 6.088,24.359 5.787,23.222 5.266,23.307 		"/>
		<path d="M6.863,20.457l-0.805,0.238l0.868,3.333l7.386-1.978c0,0,2.047,3.276,5.142,3.468c3.093,0.192,5.541-1.325,6.685-3
			l-0.123-0.613c0,0-3.701,3.572-7.755,1.611c-2.553-1.367-3.442-2.917-3.442-2.917l-7.373,2.062L6.863,20.457z"/>
		<polygon points="23.21,12.281 18.857,13.415 18.464,14.734 23.44,13.501 		"/>
	</g>
</g>
<g id="Layer_6" display="none">
</g>
<g id="Layer_7" display="none">
</g>
</svg>
